<svg xmlns="http://www.w3.org/2000/svg" width="100%" height="100%" viewBox="0 0 200 200">
 <defs>
  <radialGradient fy="70%" fx="70%" r="80%" cy="40%" cx="50%" id="bg">
   <stop stop-color="#6BBC44" offset="0%"/>
   <stop stop-color="#006130" offset="100%"/>
  </radialGradient>
  <radialGradient cy="0.683594" cx="0.75" spreadMethod="pad" id="svg_24">
   <stop offset="0" stop-color="#fff"/>
   <stop offset="0.527344" stop-color="#00f0NaN"/>
   <stop offset="1" stop-color="#00f0NaN"/>
  </radialGradient>
 </defs>
 <g>
  <rect fill="none" id="canvas_background" height="202" width="202" y="-1" x="-1"/>
 </g>
 <g>
  <ellipse stroke="#000" ry="90.500003" rx="90.500003" id="svg_23" cy="99.999997" cx="99.999997" stroke-width="3.5" fill="#fff"/>
  <g id="svg_1" transform="rotate(45 100 75.7107)">
   <rect x="57.778148" y="33.488851" id="svg_2" fill="url(#bg)" ry="10" rx="10" height="84.443653" width="84.443653"/>
   <g stroke="#C6C6C6" id="svg_3" fill="transparent">
    <circle id="svg_4" r="3.377747" cy="43.622089" cx="70.444696" stroke-width="2"/>
    <circle id="svg_5" r="6.755493" cy="50.377582" cx="125.33307" stroke-width="4"/>
   </g>
   <g stroke="#C6C6C6" id="svg_6" stroke-width="2">
    <line id="svg_7" y2="54.599764" x2="91.555609" y1="33.488851" x1="91.555609"/>
    <line id="svg_8" y2="58.821947" x2="95.777792" y1="33.488851" x1="95.777792"/>
    <line id="svg_9" y2="63.044129" x2="99.999974" y1="33.488851" x1="99.999974"/>
    <line id="svg_10" y2="67.266312" x2="104.222157" y1="33.488851" x1="104.222157"/>
    <line id="svg_11" y2="101.88821" x2="70.444696" y1="46.155399" x1="70.444696"/>
    <line id="svg_12" y2="97.666027" x2="74.666878" y1="50.377582" x1="74.666878"/>
    <line id="svg_13" y2="93.443844" x2="78.889061" y1="54.599764" x1="78.889061"/>
    <line id="svg_14" y2="89.221662" x2="83.111244" y1="58.821947" x1="83.111244"/>
    <line id="svg_15" y2="75.710677" x2="142.221801" y1="75.710677" x1="133.777435"/>
    <line id="svg_16" y2="79.93286" x2="142.221801" y1="79.93286" x1="116.888705"/>
    <line id="svg_17" y2="84.155043" x2="142.221801" y1="84.155043" x1="99.999974"/>
    <line id="svg_18" y2="88.377225" x2="142.221801" y1="88.377225" x1="83.111244"/>
    <line id="svg_19" y2="92.599408" x2="142.221801" y1="92.599408" x1="78.889061"/>
    <line id="svg_20" y2="96.821591" x2="142.221801" y1="96.821591" x1="74.666878"/>
    <line id="svg_21" y2="101.043773" x2="142.221801" y1="101.043773" x1="70.444696"/>
   </g>
  </g>
  <text stroke="#000" font-weight="normal" xml:space="preserve" text-anchor="left" font-family="'Courier New', Courier, monospace" font-size="24" id="svg_25" y="152.5" x="28">Cyber-Lane</text>
 </g>
</svg>