<svg xmlns="http://www.w3.org/2000/svg" width="100%" height="100%" viewBox="-21 -21 142 142">
  <defs>
    <radialGradient id="bg" cx="50%" cy="40%" r="80%" fx="70%" fy="70%">
      <stop offset="0%" style="stop-color:#6BBC44;stop-opacity:1;" />
      <stop offset="100%" style="stop-color:#006130;stop-opacity:1;" />
    </radialGradient>
  </defs>
  <g transform="rotate(45 50 50)">
    <rect width="100" height="100" rx="10" ry="10" fill="url(#bg)" />
    <g stroke="#C6C6C6" fill="transparent">
      <circle stroke-width="2" cx="15" cy="12" r="4" />
      <circle stroke-width="4" cx="80" cy="20" r="8" />
    </g>
    <g stroke="#C6C6C6" stroke-width="2">
      <line x1="40" y1="0" x2="40" y2="25" />
      <line x1="45" y1="0" x2="45" y2="30" />
      <line x1="50" y1="0" x2="50" y2="35" />
      <line x1="55" y1="0" x2="55" y2="40" />
      <line x1="15" y1="15" x2="15" y2="81" />
      <line x1="20" y1="20" x2="20" y2="76" />
      <line x1="25" y1="25" x2="25" y2="71" />
      <line x1="30" y1="30" x2="30" y2="66" />
      <line x1="90" y1="50" x2="100" y2="50" />
      <line x1="70" y1="55" x2="100" y2="55" />
      <line x1="50" y1="60" x2="100" y2="60" />
      <line x1="30" y1="65" x2="100" y2="65" />
      <line x1="25" y1="70" x2="100" y2="70" />
      <line x1="20" y1="75" x2="100" y2="75" />
      <line x1="15" y1="80" x2="100" y2="80" />
    </g>
  </g>
</svg>