<svg width="1920" height="965" xmlns="http://www.w3.org/2000/svg"><g><path d="M-31.534618930891156,-128.13548393547535L-127.56316979415715,233.5473555419594L-68.06634879671037,52.06828317604959Z" fill="#863695" stroke="#863695"></path><path d="M-31.534618930891156,-128.13548393547535L-68.06634879671037,52.06828317604959L47.66567355953157,-20.441477168351412Z" fill="#792087" stroke="#792087"></path><path d="M-31.534618930891156,-128.13548393547535L47.66567355953157,-20.441477168351412L214.36709652654827,-58.67070134729147Z" fill="#7a2187" stroke="#7a2187"></path><path d="M-31.534618930891156,-128.13548393547535L214.36709652654827,-58.67070134729147L421.43932160921395,-110.0528952665627Z" fill="#7f348c" stroke="#7f348c"></path><path d="M-31.534618930891156,-128.13548393547535L421.43932160921395,-110.0528952665627L1710.2656583022326,-133.91199588775635Z" fill="#9f6da3" stroke="#9f6da3"></path><path d="M47.66567355953157,-20.441477168351412L-68.06634879671037,52.06828317604959L94.87122201360762,60.908513674512506Z" fill="#8a3e9a" stroke="#8a3e9a"></path><path d="M47.66567355953157,-20.441477168351412L94.87122201360762,60.908513674512506L214.36709652654827,-58.67070134729147Z" fill="#8b3f9a" stroke="#8b3f9a"></path><path d="M214.36709652654827,-58.67070134729147L94.87122201360762,60.908513674512506L267.86533006466925,119.76612011902034Z" fill="#9b5bac" stroke="#9b5bac"></path><path d="M214.36709652654827,-58.67070134729147L267.86533006466925,119.76612011902034L365.946458671242,130.1380985789001Z" fill="#a871bc" stroke="#a871bc"></path><path d="M214.36709652654827,-58.67070134729147L365.946458671242,130.1380985789001L421.43932160921395,-110.0528952665627Z" fill="#9d5dae" stroke="#9d5dae"></path><path d="M421.43932160921395,-110.0528952665627L365.946458671242,130.1380985789001L532.4653297103941,78.88397279195487Z" fill="#b079bf" stroke="#b079bf"></path><path d="M421.43932160921395,-110.0528952665627L532.4653297103941,78.88397279195487L578.2185672596097,-99.67067465186119Z" fill="#a665b0" stroke="#a665b0"></path><path d="M421.43932160921395,-110.0528952665627L578.2185672596097,-99.67067465186119L1710.2656583022326,-133.91199588775635Z" fill="#9c769e" stroke="#9c769e"></path><path d="M578.2185672596097,-99.67067465186119L532.4653297103941,78.88397279195487L620.0576205644757,46.19105595164001Z" fill="#b77fc1" stroke="#b77fc1"></path><path d="M578.2185672596097,-99.67067465186119L620.0576205644757,46.19105595164001L721.8568310234696,-52.86328070797026Z" fill="#b376ba" stroke="#b376ba"></path><path d="M578.2185672596097,-99.67067465186119L721.8568310234696,-52.86328070797026L1163.080788468942,-80.19429794512689Z" fill="#a672aa" stroke="#a672aa"></path><path d="M578.2185672596097,-99.67067465186119L1163.080788468942,-80.19429794512689L1438.664210345596,-103.04633243009448Z" fill="#917194" stroke="#917194"></path><path d="M578.2185672596097,-99.67067465186119L1438.664210345596,-103.04633243009448L1710.2656583022326,-133.91199588775635Z" fill="#746376" stroke="#746376"></path><path d="M721.8568310234696,-52.86328070797026L620.0576205644757,46.19105595164001L824.6714195050299,61.100506419315934Z" fill="#bc8dc4" stroke="#bc8dc4"></path><path d="M721.8568310234696,-52.86328070797026L824.6714195050299,61.100506419315934L818.9802011568099,-24.83746717683971Z" fill="#b688bc" stroke="#b688bc"></path><path d="M721.8568310234696,-52.86328070797026L818.9802011568099,-24.83746717683971L915.5830776225775,-24.365279003977776Z" fill="#af7fb4" stroke="#af7fb4"></path><path d="M721.8568310234696,-52.86328070797026L915.5830776225775,-24.365279003977776L1163.080788468942,-80.19429794512689Z" fill="#a97dac" stroke="#a97dac"></path><path d="M818.9802011568099,-24.83746717683971L824.6714195050299,61.100506419315934L915.5830776225775,-24.365279003977776Z" fill="#b78ebc" stroke="#b78ebc"></path><path d="M915.5830776225775,-24.365279003977776L824.6714195050299,61.100506419315934L925.4140110500157,108.4047322254628Z" fill="#bfa0c6" stroke="#bfa0c6"></path><path d="M915.5830776225775,-24.365279003977776L925.4140110500157,108.4047322254628L1077.9286644794047,100.61180024407804Z" fill="#bea7c4" stroke="#bea7c4"></path><path d="M915.5830776225775,-24.365279003977776L1077.9286644794047,100.61180024407804L1163.080788468942,-80.19429794512689Z" fill="#a68aab" stroke="#a68aab"></path><path d="M1163.080788468942,-80.19429794512689L1077.9286644794047,100.61180024407804L1267.7111621014774,99.140190705657Z" fill="#9e90a4" stroke="#9e90a4"></path><path d="M1163.080788468942,-80.19429794512689L1267.7111621014774,99.140190705657L1299.5562234241515,-56.375174475833774Z" fill="#89778e" stroke="#89778e"></path><path d="M1163.080788468942,-80.19429794512689L1299.5562234241515,-56.375174475833774L1438.664210345596,-103.04633243009448Z" fill="#725d77" stroke="#725d77"></path><path d="M1299.5562234241515,-56.375174475833774L1267.7111621014774,99.140190705657L1407.8792318701744,64.63824950158596Z" fill="#87818f" stroke="#87818f"></path><path d="M1299.5562234241515,-56.375174475833774L1407.8792318701744,64.63824950158596L1438.664210345596,-103.04633243009448Z" fill="#706279" stroke="#706279"></path><path d="M1438.664210345596,-103.04633243009448L1407.8792318701744,64.63824950158596L1592.6875475607812,-46.940193716436625Z" fill="#615870" stroke="#615870"></path><path d="M1438.664210345596,-103.04633243009448L1592.6875475607812,-46.940193716436625L1710.2656583022326,-133.91199588775635Z" fill="#433e55" stroke="#433e55"></path><path d="M1592.6875475607812,-46.940193716436625L1407.8792318701744,64.63824950158596L1603.2544888928533,119.08487361855805Z" fill="#686d7c" stroke="#686d7c"></path><path d="M1592.6875475607812,-46.940193716436625L1603.2544888928533,119.08487361855805L1745.1760902442038,113.76657254062593Z" fill="#5a6774" stroke="#5a6774"></path><path d="M1592.6875475607812,-46.940193716436625L1745.1760902442038,113.76657254062593L1710.2656583022326,-133.91199588775635Z" fill="#43445b" stroke="#43445b"></path><path d="M1710.2656583022326,-133.91199588775635L1745.1760902442038,113.76657254062593L1894.9275870155543,35.33572459593415Z" fill="#484357" stroke="#484357"></path><path d="M1710.2656583022326,-133.91199588775635L1894.9275870155543,35.33572459593415L1902.1866864245385,-110.96920349635184Z" fill="#382240" stroke="#382240"></path><path d="M1902.1866864245385,-110.96920349635184L1894.9275870155543,35.33572459593415L2023.4191052243114,-56.75641352310777Z" fill="#3d2044" stroke="#3d2044"></path><path d="M2023.4191052243114,-56.75641352310777L1894.9275870155543,35.33572459593415L2061.411865828559,130.14698398299515Z" fill="#4e3757" stroke="#4e3757"></path><path d="M-68.06634879671037,52.06828317604959L-127.56316979415715,233.5473555419594L109.58317791111767,261.64353031665087Z" fill="#a46ab5" stroke="#a46ab5"></path><path d="M-68.06634879671037,52.06828317604959L109.58317791111767,261.64353031665087L94.87122201360762,60.908513674512506Z" fill="#a063b2" stroke="#a063b2"></path><path d="M94.87122201360762,60.908513674512506L109.58317791111767,261.64353031665087L267.86533006466925,119.76612011902034Z" fill="#af7dc3" stroke="#af7dc3"></path><path d="M267.86533006466925,119.76612011902034L109.58317791111767,261.64353031665087L230.12396352365613,269.84267983585596Z" fill="#be98cf" stroke="#be98cf"></path><path d="M267.86533006466925,119.76612011902034L230.12396352365613,269.84267983585596L320.69565983489156,211.295176288113Z" fill="#c29ed4" stroke="#c29ed4"></path><path d="M267.86533006466925,119.76612011902034L320.69565983489156,211.295176288113L365.946458671242,130.1380985789001Z" fill="#bf98d5" stroke="#bf98d5"></path><path d="M365.946458671242,130.1380985789001L320.69565983489156,211.295176288113L527.0045182015747,241.90264058299363Z" fill="#cdadde" stroke="#cdadde"></path><path d="M365.946458671242,130.1380985789001L527.0045182015747,241.90264058299363L532.4653297103941,78.88397279195487Z" fill="#cca8dd" stroke="#cca8dd"></path><path d="M532.4653297103941,78.88397279195487L527.0045182015747,241.90264058299363L671.0465208627284,215.30020968988538Z" fill="#d9bce6" stroke="#d9bce6"></path><path d="M532.4653297103941,78.88397279195487L671.0465208627284,215.30020968988538L620.0576205644757,46.19105595164001Z" fill="#cfa9db" stroke="#cfa9db"></path><path d="M620.0576205644757,46.19105595164001L671.0465208627284,215.30020968988538L824.6714195050299,61.100506419315934Z" fill="#cfaeda" stroke="#cfaeda"></path><path d="M824.6714195050299,61.100506419315934L671.0465208627284,215.30020968988538L815.5738990288228,192.80196318402886Z" fill="#d8c2e3" stroke="#d8c2e3"></path><path d="M824.6714195050299,61.100506419315934L815.5738990288228,192.80196318402886L925.4140110500157,108.4047322254628Z" fill="#cfb9d8" stroke="#cfb9d8"></path><path d="M925.4140110500157,108.4047322254628L815.5738990288228,192.80196318402886L975.0086128246039,246.58682157285511Z" fill="#d9d0e2" stroke="#d9d0e2"></path><path d="M925.4140110500157,108.4047322254628L975.0086128246039,246.58682157285511L1077.9286644794047,100.61180024407804Z" fill="#cfc6d8" stroke="#cfc6d8"></path><path d="M1077.9286644794047,100.61180024407804L975.0086128246039,246.58682157285511L1148.2581129670143,202.21689976751804Z" fill="#c9cad1" stroke="#c9cad1"></path><path d="M1077.9286644794047,100.61180024407804L1148.2581129670143,202.21689976751804L1267.7111621014774,99.140190705657Z" fill="#b3b3bc" stroke="#b3b3bc"></path><path d="M1267.7111621014774,99.140190705657L1148.2581129670143,202.21689976751804L1249.5912187825888,206.74462663941085Z" fill="#b1bbbb" stroke="#b1bbbb"></path><path d="M1267.7111621014774,99.140190705657L1249.5912187825888,206.74462663941085L1449.7882106155157,169.25852791406214Z" fill="#a1aead" stroke="#a1aead"></path><path d="M1267.7111621014774,99.140190705657L1449.7882106155157,169.25852791406214L1407.8792318701744,64.63824950158596Z" fill="#8f979c" stroke="#8f979c"></path><path d="M1407.8792318701744,64.63824950158596L1449.7882106155157,169.25852791406214L1603.2544888928533,119.08487361855805Z" fill="#7f8d92" stroke="#7f8d92"></path><path d="M1603.2544888928533,119.08487361855805L1449.7882106155157,169.25852791406214L1570.4966840799898,237.38630276173353Z" fill="#819b97" stroke="#819b97"></path><path d="M1603.2544888928533,119.08487361855805L1570.4966840799898,237.38630276173353L1736.218373766169,254.17339025996625Z" fill="#77988f" stroke="#77988f"></path><path d="M1603.2544888928533,119.08487361855805L1736.218373766169,254.17339025996625L1745.1760902442038,113.76657254062593Z" fill="#698686" stroke="#698686"></path><path d="M1745.1760902442038,113.76657254062593L1736.218373766169,254.17339025996625L1921.4504043292254,274.2816737294197Z" fill="#70887e" stroke="#70887e"></path><path d="M1745.1760902442038,113.76657254062593L1921.4504043292254,274.2816737294197L1894.9275870155543,35.33572459593415Z" fill="#656d71" stroke="#656d71"></path><path d="M1894.9275870155543,35.33572459593415L1921.4504043292254,274.2816737294197L1966.5002979710698,238.27888660132885Z" fill="#6c7276" stroke="#6c7276"></path><path d="M1894.9275870155543,35.33572459593415L1966.5002979710698,238.27888660132885L2061.411865828559,130.14698398299515Z" fill="#635d6e" stroke="#635d6e"></path><path d="M2061.411865828559,130.14698398299515L1966.5002979710698,238.27888660132885L1981.1484791524708,329.00553080253303Z" fill="#73777a" stroke="#73777a"></path><path d="M2061.411865828559,130.14698398299515L1981.1484791524708,329.00553080253303L2003.282782137394,541.4816943649203Z" fill="#808d80" stroke="#808d80"></path><path d="M2061.411865828559,130.14698398299515L2003.282782137394,541.4816943649203L2005.9519624896348,783.3944621589035Z" fill="#7f8d7d" stroke="#7f8d7d"></path><path d="M2061.411865828559,130.14698398299515L2005.9519624896348,783.3944621589035L2028.5806282795966,1157.3922738153487Z" fill="#3b723e" stroke="#3b723e"></path><path d="M-127.56316979415715,233.5473555419594L-89.47613823227584,1083.592583136633L-101.10671421512961,639.8667652253062Z" fill="#7a747e" stroke="#7a747e"></path><path d="M-127.56316979415715,233.5473555419594L-101.10671421512961,639.8667652253062L-77.1169803198427,577.0002475194633Z" fill="#b185b5" stroke="#b185b5"></path><path d="M-127.56316979415715,233.5473555419594L-77.1169803198427,577.0002475194633L-70.91276021674275,315.61217132024467Z" fill="#b386b8" stroke="#b386b8"></path><path d="M-127.56316979415715,233.5473555419594L-70.91276021674275,315.61217132024467L109.58317791111767,261.64353031665087Z" fill="#b182bb" stroke="#b182bb"></path><path d="M109.58317791111767,261.64353031665087L-70.91276021674275,315.61217132024467L48.12929998151958,406.36747777462006Z" fill="#bd98c4" stroke="#bd98c4"></path><path d="M109.58317791111767,261.64353031665087L48.12929998151958,406.36747777462006L264.54831660725176,404.9822763260454Z" fill="#c7aacf" stroke="#c7aacf"></path><path d="M109.58317791111767,261.64353031665087L264.54831660725176,404.9822763260454L230.12396352365613,269.84267983585596Z" fill="#cbb0d5" stroke="#cbb0d5"></path><path d="M230.12396352365613,269.84267983585596L264.54831660725176,404.9822763260454L338.1671174056828,421.61633846350014Z" fill="#d3bfdd" stroke="#d3bfdd"></path><path d="M230.12396352365613,269.84267983585596L338.1671174056828,421.61633846350014L320.69565983489156,211.295176288113Z" fill="#d2bcdd" stroke="#d2bcdd"></path><path d="M320.69565983489156,211.295176288113L338.1671174056828,421.61633846350014L527.0045182015747,241.90264058299363Z" fill="#d9c6e4" stroke="#d9c6e4"></path><path d="M527.0045182015747,241.90264058299363L338.1671174056828,421.61633846350014L567.176402611658,422.7010056283325Z" fill="#e5d7ea" stroke="#e5d7ea"></path><path d="M527.0045182015747,241.90264058299363L567.176402611658,422.7010056283325L660.3109298273921,404.577523721382Z" fill="#eee3f0" stroke="#eee3f0"></path><path d="M527.0045182015747,241.90264058299363L660.3109298273921,404.577523721382L671.0465208627284,215.30020968988538Z" fill="#ecddf0" stroke="#ecddf0"></path><path d="M671.0465208627284,215.30020968988538L660.3109298273921,404.577523721382L818.6353257112205,376.9718551263213Z" fill="#f2ecf1" stroke="#f2ecf1"></path><path d="M671.0465208627284,215.30020968988538L818.6353257112205,376.9718551263213L815.5738990288228,192.80196318402886Z" fill="#e8deec" stroke="#e8deec"></path><path d="M815.5738990288228,192.80196318402886L818.6353257112205,376.9718551263213L975.0086128246039,246.58682157285511Z" fill="#e7e6e9" stroke="#e7e6e9"></path><path d="M975.0086128246039,246.58682157285511L818.6353257112205,376.9718551263213L991.6906722541898,329.8090714775026Z" fill="#ecf4ea" stroke="#ecf4ea"></path><path d="M975.0086128246039,246.58682157285511L991.6906722541898,329.8090714775026L1148.2581129670143,202.21689976751804Z" fill="#d8e0da" stroke="#d8e0da"></path><path d="M1148.2581129670143,202.21689976751804L991.6906722541898,329.8090714775026L1068.2038098480552,398.68010530248284Z" fill="#dbebd9" stroke="#dbebd9"></path><path d="M1148.2581129670143,202.21689976751804L1068.2038098480552,398.68010530248284L1245.899473540485,356.6344113461673Z" fill="#d0e7cf" stroke="#d0e7cf"></path><path d="M1148.2581129670143,202.21689976751804L1245.899473540485,356.6344113461673L1249.5912187825888,206.74462663941085Z" fill="#bfd2c2" stroke="#bfd2c2"></path><path d="M1249.5912187825888,206.74462663941085L1245.899473540485,356.6344113461673L1447.76814032346,374.101902237162Z" fill="#b8d8b9" stroke="#b8d8b9"></path><path d="M1249.5912187825888,206.74462663941085L1447.76814032346,374.101902237162L1449.7882106155157,169.25852791406214Z" fill="#a5c0ad" stroke="#a5c0ad"></path><path d="M1449.7882106155157,169.25852791406214L1447.76814032346,374.101902237162L1570.4966840799898,237.38630276173353Z" fill="#96b7a3" stroke="#96b7a3"></path><path d="M1570.4966840799898,237.38630276173353L1447.76814032346,374.101902237162L1609.7763845231384,322.1907335612923Z" fill="#95bea1" stroke="#95bea1"></path><path d="M1570.4966840799898,237.38630276173353L1609.7763845231384,322.1907335612923L1736.218373766169,254.17339025996625Z" fill="#80a994" stroke="#80a994"></path><path d="M1736.218373766169,254.17339025996625L1609.7763845231384,322.1907335612923L1684.3797345645726,412.1464780345559Z" fill="#81b293" stroke="#81b293"></path><path d="M1736.218373766169,254.17339025996625L1684.3797345645726,412.1464780345559L1906.8839810136706,387.7958116773516Z" fill="#80a788" stroke="#80a788"></path><path d="M1736.218373766169,254.17339025996625L1906.8839810136706,387.7958116773516L1921.4504043292254,274.2816737294197Z" fill="#7d9a7f" stroke="#7d9a7f"></path><path d="M1921.4504043292254,274.2816737294197L1906.8839810136706,387.7958116773516L1981.1484791524708,329.00553080253303Z" fill="#809580" stroke="#809580"></path><path d="M1921.4504043292254,274.2816737294197L1981.1484791524708,329.00553080253303L1966.5002979710698,238.27888660132885Z" fill="#7a887d" stroke="#7a887d"></path><path d="M-70.91276021674275,315.61217132024467L-77.1169803198427,577.0002475194633L48.12929998151958,406.36747777462006Z" fill="#b88fbd" stroke="#b88fbd"></path><path d="M48.12929998151958,406.36747777462006L-77.1169803198427,577.0002475194633L129.36821825802326,536.7675410863012Z" fill="#b698bb" stroke="#b698bb"></path><path d="M48.12929998151958,406.36747777462006L129.36821825802326,536.7675410863012L264.54831660725176,404.9822763260454Z" fill="#c8accf" stroke="#c8accf"></path><path d="M264.54831660725176,404.9822763260454L129.36821825802326,536.7675410863012L223.53763855062425,571.3788248319179Z" fill="#c6b3cd" stroke="#c6b3cd"></path><path d="M264.54831660725176,404.9822763260454L223.53763855062425,571.3788248319179L338.1671174056828,421.61633846350014Z" fill="#d3bfdb" stroke="#d3bfdb"></path><path d="M338.1671174056828,421.61633846350014L223.53763855062425,571.3788248319179L430.8452806994319,503.0420634895563Z" fill="#d3c6db" stroke="#d3c6db"></path><path d="M338.1671174056828,421.61633846350014L430.8452806994319,503.0420634895563L567.176402611658,422.7010056283325Z" fill="#e2d4e7" stroke="#e2d4e7"></path><path d="M567.176402611658,422.7010056283325L430.8452806994319,503.0420634895563L478.62329503521323,529.543537851423Z" fill="#e5d9e9" stroke="#e5d9e9"></path><path d="M567.176402611658,422.7010056283325L478.62329503521323,529.543537851423L650.236516110599,531.8833790905774Z" fill="#e9e0ea" stroke="#e9e0ea"></path><path d="M567.176402611658,422.7010056283325L650.236516110599,531.8833790905774L660.3109298273921,404.577523721382Z" fill="#f2e8f2" stroke="#f2e8f2"></path><path d="M660.3109298273921,404.577523721382L650.236516110599,531.8833790905774L846.6876290738583,470.41358378715813Z" fill="#f2edf0" stroke="#f2edf0"></path><path d="M660.3109298273921,404.577523721382L846.6876290738583,470.41358378715813L818.6353257112205,376.9718551263213Z" fill="#f0efee" stroke="#f0efee"></path><path d="M818.6353257112205,376.9718551263213L846.6876290738583,470.41358378715813L991.6906722541898,329.8090714775026Z" fill="#eef4eb" stroke="#eef4eb"></path><path d="M991.6906722541898,329.8090714775026L846.6876290738583,470.41358378715813L962.1737848687917,507.1797378268093Z" fill="#edf6e9" stroke="#edf6e9"></path><path d="M991.6906722541898,329.8090714775026L962.1737848687917,507.1797378268093L1068.2038098480552,398.68010530248284Z" fill="#e6f4e2" stroke="#e6f4e2"></path><path d="M1068.2038098480552,398.68010530248284L962.1737848687917,507.1797378268093L1163.0471153464168,465.00004411675036Z" fill="#def0d9" stroke="#def0d9"></path><path d="M1068.2038098480552,398.68010530248284L1163.0471153464168,465.00004411675036L1245.899473540485,356.6344113461673Z" fill="#d0e8cd" stroke="#d0e8cd"></path><path d="M1245.899473540485,356.6344113461673L1163.0471153464168,465.00004411675036L1242.337953094393,565.8150711189955Z" fill="#c8e4c4" stroke="#c8e4c4"></path><path d="M1245.899473540485,356.6344113461673L1242.337953094393,565.8150711189955L1430.66271093674,567.9111310746521Z" fill="#b7dbb4" stroke="#b7dbb4"></path><path d="M1245.899473540485,356.6344113461673L1430.66271093674,567.9111310746521L1447.76814032346,374.101902237162Z" fill="#b0d4b2" stroke="#b0d4b2"></path><path d="M1447.76814032346,374.101902237162L1430.66271093674,567.9111310746521L1621.7450841050595,564.989827349782Z" fill="#96c59e" stroke="#96c59e"></path><path d="M1447.76814032346,374.101902237162L1621.7450841050595,564.989827349782L1684.3797345645726,412.1464780345559Z" fill="#90bd9c" stroke="#90bd9c"></path><path d="M1447.76814032346,374.101902237162L1684.3797345645726,412.1464780345559L1609.7763845231384,322.1907335612923Z" fill="#90bd9d" stroke="#90bd9d"></path><path d="M1684.3797345645726,412.1464780345559L1621.7450841050595,564.989827349782L1782.856177277863,552.5515475962311Z" fill="#77af87" stroke="#77af87"></path><path d="M1684.3797345645726,412.1464780345559L1782.856177277863,552.5515475962311L1906.8839810136706,387.7958116773516Z" fill="#80a786" stroke="#80a786"></path><path d="M1906.8839810136706,387.7958116773516L1782.856177277863,552.5515475962311L1929.902780111879,579.9382497556508Z" fill="#789b76" stroke="#789b76"></path><path d="M1906.8839810136706,387.7958116773516L1929.902780111879,579.9382497556508L2003.282782137394,541.4816943649203Z" fill="#799478" stroke="#799478"></path><path d="M1906.8839810136706,387.7958116773516L2003.282782137394,541.4816943649203L1981.1484791524708,329.00553080253303Z" fill="#80937f" stroke="#80937f"></path><path d="M-77.1169803198427,577.0002475194633L-101.10671421512961,639.8667652253062L75.80129767768085,663.4570270590484Z" fill="#89838d" stroke="#89838d"></path><path d="M-77.1169803198427,577.0002475194633L75.80129767768085,663.4570270590484L129.36821825802326,536.7675410863012Z" fill="#9b92a0" stroke="#9b92a0"></path><path d="M129.36821825802326,536.7675410863012L75.80129767768085,663.4570270590484L223.53763855062425,571.3788248319179Z" fill="#a4a2ab" stroke="#a4a2ab"></path><path d="M223.53763855062425,571.3788248319179L75.80129767768085,663.4570270590484L243.82641320116818,639.0734965447336Z" fill="#9da5a3" stroke="#9da5a3"></path><path d="M223.53763855062425,571.3788248319179L243.82641320116818,639.0734965447336L430.8452806994319,503.0420634895563Z" fill="#b9bcc1" stroke="#b9bcc1"></path><path d="M430.8452806994319,503.0420634895563L243.82641320116818,639.0734965447336L420.64212555997074,677.3131746612489Z" fill="#b3c1ba" stroke="#b3c1ba"></path><path d="M430.8452806994319,503.0420634895563L420.64212555997074,677.3131746612489L478.62329503521323,529.543537851423Z" fill="#c6ccca" stroke="#c6ccca"></path><path d="M478.62329503521323,529.543537851423L420.64212555997074,677.3131746612489L572.9978024493903,669.5310358889401Z" fill="#b8cdbb" stroke="#b8cdbb"></path><path d="M478.62329503521323,529.543537851423L572.9978024493903,669.5310358889401L650.236516110599,531.8833790905774Z" fill="#cedacf" stroke="#cedacf"></path><path d="M650.236516110599,531.8833790905774L572.9978024493903,669.5310358889401L723.4903742931783,667.7952951751649Z" fill="#c6dec4" stroke="#c6dec4"></path><path d="M650.236516110599,531.8833790905774L723.4903742931783,667.7952951751649L846.6876290738583,470.41358378715813Z" fill="#d9e8d7" stroke="#d9e8d7"></path><path d="M846.6876290738583,470.41358378715813L723.4903742931783,667.7952951751649L834.6270443871617,662.9592332895845Z" fill="#cae7c6" stroke="#cae7c6"></path><path d="M846.6876290738583,470.41358378715813L834.6270443871617,662.9592332895845L962.1737848687917,507.1797378268093Z" fill="#d9efd5" stroke="#d9efd5"></path><path d="M962.1737848687917,507.1797378268093L834.6270443871617,662.9592332895845L928.9360708650202,730.3151309676468Z" fill="#bce9b8" stroke="#bce9b8"></path><path d="M962.1737848687917,507.1797378268093L928.9360708650202,730.3151309676468L1127.656462462619,622.5034192856401Z" fill="#b9e9b4" stroke="#b9e9b4"></path><path d="M962.1737848687917,507.1797378268093L1127.656462462619,622.5034192856401L1163.0471153464168,465.00004411675036Z" fill="#cbeac7" stroke="#cbeac7"></path><path d="M1163.0471153464168,465.00004411675036L1127.656462462619,622.5034192856401L1242.337953094393,565.8150711189955Z" fill="#b8e1b3" stroke="#b8e1b3"></path><path d="M1242.337953094393,565.8150711189955L1127.656462462619,622.5034192856401L1273.4304739907384,649.3878292478621Z" fill="#9ed99a" stroke="#9ed99a"></path><path d="M1242.337953094393,565.8150711189955L1273.4304739907384,649.3878292478621L1418.725018305704,621.0675730928779Z" fill="#90d18e" stroke="#90d18e"></path><path d="M1242.337953094393,565.8150711189955L1418.725018305704,621.0675730928779L1430.66271093674,567.9111310746521Z" fill="#91cd91" stroke="#91cd91"></path><path d="M1430.66271093674,567.9111310746521L1418.725018305704,621.0675730928779L1621.7450841050595,564.989827349782Z" fill="#7dbf84" stroke="#7dbf84"></path><path d="M1621.7450841050595,564.989827349782L1418.725018305704,621.0675730928779L1619.190993513912,692.8744887840003Z" fill="#66b570" stroke="#66b570"></path><path d="M1621.7450841050595,564.989827349782L1619.190993513912,692.8744887840003L1706.006187396124,634.4755176175386Z" fill="#56aa64" stroke="#56aa64"></path><path d="M1621.7450841050595,564.989827349782L1706.006187396124,634.4755176175386L1782.856177277863,552.5515475962311Z" fill="#5fa86e" stroke="#5fa86e"></path><path d="M1782.856177277863,552.5515475962311L1706.006187396124,634.4755176175386L1894.8934879526496,697.51016699709Z" fill="#519a56" stroke="#519a56"></path><path d="M1782.856177277863,552.5515475962311L1894.8934879526496,697.51016699709L1929.902780111879,579.9382497556508Z" fill="#579355" stroke="#579355"></path><path d="M1929.902780111879,579.9382497556508L1894.8934879526496,697.51016699709L1997.0708936825395,676.5204876847565Z" fill="#498648" stroke="#498648"></path><path d="M1929.902780111879,579.9382497556508L1997.0708936825395,676.5204876847565L2003.282782137394,541.4816943649203Z" fill="#5a8858" stroke="#5a8858"></path><path d="M2003.282782137394,541.4816943649203L1997.0708936825395,676.5204876847565L2005.9519624896348,783.3944621589035Z" fill="#437b44" stroke="#437b44"></path><path d="M-101.10671421512961,639.8667652253062L-89.47613823227584,1083.592583136633L-29.30789561010897,919.1186173539609Z" fill="#353d47" stroke="#353d47"></path><path d="M-101.10671421512961,639.8667652253062L-29.30789561010897,919.1186173539609L-15.201826337724924,788.2192656118423Z" fill="#505b63" stroke="#505b63"></path><path d="M-101.10671421512961,639.8667652253062L-15.201826337724924,788.2192656118423L75.80129767768085,663.4570270590484Z" fill="#72777c" stroke="#72777c"></path><path d="M75.80129767768085,663.4570270590484L-15.201826337724924,788.2192656118423L106.77693315781653,796.5703165344894Z" fill="#657476" stroke="#657476"></path><path d="M75.80129767768085,663.4570270590484L106.77693315781653,796.5703165344894L243.82641320116818,639.0734965447336Z" fill="#7f8e8b" stroke="#7f8e8b"></path><path d="M243.82641320116818,639.0734965447336L106.77693315781653,796.5703165344894L214.8341783322394,830.1989813055843Z" fill="#6f8782" stroke="#6f8782"></path><path d="M243.82641320116818,639.0734965447336L214.8341783322394,830.1989813055843L338.60459516756237,821.3729697559029Z" fill="#739087" stroke="#739087"></path><path d="M243.82641320116818,639.0734965447336L338.60459516756237,821.3729697559029L420.64212555997074,677.3131746612489Z" fill="#8ca89b" stroke="#8ca89b"></path><path d="M420.64212555997074,677.3131746612489L338.60459516756237,821.3729697559029L489.57625072449446,792.1103404462337Z" fill="#80a392" stroke="#80a392"></path><path d="M420.64212555997074,677.3131746612489L489.57625072449446,792.1103404462337L572.9978024493903,669.5310358889401Z" fill="#9abaa3" stroke="#9abaa3"></path><path d="M572.9978024493903,669.5310358889401L489.57625072449446,792.1103404462337L620.3098310250789,809.8020140267909Z" fill="#8fb59c" stroke="#8fb59c"></path><path d="M572.9978024493903,669.5310358889401L620.3098310250789,809.8020140267909L723.4903742931783,667.7952951751649Z" fill="#a5c9ab" stroke="#a5c9ab"></path><path d="M723.4903742931783,667.7952951751649L620.3098310250789,809.8020140267909L884.463613294065,814.0433044731617Z" fill="#92c19c" stroke="#92c19c"></path><path d="M723.4903742931783,667.7952951751649L884.463613294065,814.0433044731617L834.6270443871617,662.9592332895845Z" fill="#a1d1a6" stroke="#a1d1a6"></path><path d="M834.6270443871617,662.9592332895845L884.463613294065,814.0433044731617L928.9360708650202,730.3151309676468Z" fill="#98ce9e" stroke="#98ce9e"></path><path d="M928.9360708650202,730.3151309676468L884.463613294065,814.0433044731617L950.4772088304162,804.1331480629742Z" fill="#87c491" stroke="#87c491"></path><path d="M928.9360708650202,730.3151309676468L950.4772088304162,804.1331480629742L1127.656462462619,622.5034192856401Z" fill="#97d39a" stroke="#97d39a"></path><path d="M1127.656462462619,622.5034192856401L950.4772088304162,804.1331480629742L1164.2390973307192,825.8700977358967Z" fill="#80c587" stroke="#80c587"></path><path d="M1127.656462462619,622.5034192856401L1164.2390973307192,825.8700977358967L1235.629598731175,809.5156932994723Z" fill="#72bd7a" stroke="#72bd7a"></path><path d="M1127.656462462619,622.5034192856401L1235.629598731175,809.5156932994723L1273.4304739907384,649.3878292478621Z" fill="#83c984" stroke="#83c984"></path><path d="M1273.4304739907384,649.3878292478621L1235.629598731175,809.5156932994723L1429.1536653600633,882.1109540294856Z" fill="#55aa61" stroke="#55aa61"></path><path d="M1273.4304739907384,649.3878292478621L1429.1536653600633,882.1109540294856L1418.725018305704,621.0675730928779Z" fill="#62b46a" stroke="#62b46a"></path><path d="M1418.725018305704,621.0675730928779L1429.1536653600633,882.1109540294856L1534.8026130907238,821.7915901914239Z" fill="#3f9b53" stroke="#3f9b53"></path><path d="M1418.725018305704,621.0675730928779L1534.8026130907238,821.7915901914239L1619.190993513912,692.8744887840003Z" fill="#4da55c" stroke="#4da55c"></path><path d="M1619.190993513912,692.8744887840003L1534.8026130907238,821.7915901914239L1757.1353522781283,883.8679848611355Z" fill="#1b8139" stroke="#1b8139"></path><path d="M1619.190993513912,692.8744887840003L1757.1353522781283,883.8679848611355L1706.006187396124,634.4755176175386Z" fill="#2a8b43" stroke="#2a8b43"></path><path d="M1706.006187396124,634.4755176175386L1757.1353522781283,883.8679848611355L1894.8934879526496,697.51016699709Z" fill="#298139" stroke="#298139"></path><path d="M1894.8934879526496,697.51016699709L1757.1353522781283,883.8679848611355L1889.6536182705313,875.9586314857006Z" fill="#0c641e" stroke="#0c641e"></path><path d="M1894.8934879526496,697.51016699709L1889.6536182705313,875.9586314857006L2005.9519624896348,783.3944621589035Z" fill="#186425" stroke="#186425"></path><path d="M1894.8934879526496,697.51016699709L2005.9519624896348,783.3944621589035L1997.0708936825395,676.5204876847565Z" fill="#307236" stroke="#307236"></path><path d="M-15.201826337724924,788.2192656118423L-29.30789561010897,919.1186173539609L53.45051804557443,918.7986311037093Z" fill="#3c4a51" stroke="#3c4a51"></path><path d="M-15.201826337724924,788.2192656118423L53.45051804557443,918.7986311037093L106.77693315781653,796.5703165344894Z" fill="#465c60" stroke="#465c60"></path><path d="M106.77693315781653,796.5703165344894L53.45051804557443,918.7986311037093L209.40161375328898,940.0105214305222Z" fill="#465a5a" stroke="#465a5a"></path><path d="M106.77693315781653,796.5703165344894L209.40161375328898,940.0105214305222L214.8341783322394,830.1989813055843Z" fill="#4b6b67" stroke="#4b6b67"></path><path d="M214.8341783322394,830.1989813055843L209.40161375328898,940.0105214305222L338.60459516756237,821.3729697559029Z" fill="#52746d" stroke="#52746d"></path><path d="M338.60459516756237,821.3729697559029L209.40161375328898,940.0105214305222L381.98149929754436,967.1561334561557Z" fill="#577166" stroke="#577166"></path><path d="M338.60459516756237,821.3729697559029L381.98149929754436,967.1561334561557L485.91036496683955,916.2921902630478Z" fill="#5f7e6e" stroke="#5f7e6e"></path><path d="M338.60459516756237,821.3729697559029L485.91036496683955,916.2921902630478L489.57625072449446,792.1103404462337Z" fill="#66917f" stroke="#66917f"></path><path d="M489.57625072449446,792.1103404462337L485.91036496683955,916.2921902630478L620.3098310250789,809.8020140267909Z" fill="#6f9c86" stroke="#6f9c86"></path><path d="M620.3098310250789,809.8020140267909L485.91036496683955,916.2921902630478L689.3280467111617,950.957057364285Z" fill="#70967c" stroke="#70967c"></path><path d="M620.3098310250789,809.8020140267909L689.3280467111617,950.957057364285L884.463613294065,814.0433044731617Z" fill="#72a784" stroke="#72a784"></path><path d="M884.463613294065,814.0433044731617L689.3280467111617,950.957057364285L817.403431981802,1004.2064202390611Z" fill="#709971" stroke="#709971"></path><path d="M884.463613294065,814.0433044731617L817.403431981802,1004.2064202390611L1018.4641743265092,932.8858810476959Z" fill="#6e9f6f" stroke="#6e9f6f"></path><path d="M884.463613294065,814.0433044731617L1018.4641743265092,932.8858810476959L950.4772088304162,804.1331480629742Z" fill="#6eb37f" stroke="#6eb37f"></path><path d="M950.4772088304162,804.1331480629742L1018.4641743265092,932.8858810476959L1164.2390973307192,825.8700977358967Z" fill="#61ac72" stroke="#61ac72"></path><path d="M1164.2390973307192,825.8700977358967L1018.4641743265092,932.8858810476959L1160.016577206552,973.8114552665502Z" fill="#57985a" stroke="#57985a"></path><path d="M1164.2390973307192,825.8700977358967L1160.016577206552,973.8114552665502L1273.231996698305,950.1364501845092Z" fill="#4b904d" stroke="#4b904d"></path><path d="M1164.2390973307192,825.8700977358967L1273.231996698305,950.1364501845092L1235.629598731175,809.5156932994723Z" fill="#489d57" stroke="#489d57"></path><path d="M1235.629598731175,809.5156932994723L1273.231996698305,950.1364501845092L1429.1536653600633,882.1109540294856Z" fill="#3b9047" stroke="#3b9047"></path><path d="M1429.1536653600633,882.1109540294856L1273.231996698305,950.1364501845092L1423.3463872689754,977.9860369954258Z" fill="#317a34" stroke="#317a34"></path><path d="M1429.1536653600633,882.1109540294856L1423.3463872689754,977.9860369954258L1529.2126548662782,960.2520766574889Z" fill="#246f2b" stroke="#246f2b"></path><path d="M1429.1536653600633,882.1109540294856L1529.2126548662782,960.2520766574889L1534.8026130907238,821.7915901914239Z" fill="#1e7932" stroke="#1e7932"></path><path d="M1534.8026130907238,821.7915901914239L1529.2126548662782,960.2520766574889L1757.1353522781283,883.8679848611355Z" fill="#0d6c26" stroke="#0d6c26"></path><path d="M1757.1353522781283,883.8679848611355L1529.2126548662782,960.2520766574889L1737.8274974226952,1006.9471228960901Z" fill="#025514" stroke="#025514"></path><path d="M1757.1353522781283,883.8679848611355L1737.8274974226952,1006.9471228960901L1852.0766572281718,1015.681093800813Z" fill="#004408" stroke="#004408"></path><path d="M1757.1353522781283,883.8679848611355L1852.0766572281718,1015.681093800813L1889.6536182705313,875.9586314857006Z" fill="#004a04" stroke="#004a04"></path><path d="M1889.6536182705313,875.9586314857006L1852.0766572281718,1015.681093800813L1990.8809844218194,930.6325665581971Z" fill="#003d00" stroke="#003d00"></path><path d="M1889.6536182705313,875.9586314857006L1990.8809844218194,930.6325665581971L2005.9519624896348,783.3944621589035Z" fill="#004c12" stroke="#004c12"></path><path d="M2005.9519624896348,783.3944621589035L1990.8809844218194,930.6325665581971L2028.5806282795966,1157.3922738153487Z" fill="#002e00" stroke="#002e00"></path><path d="M-29.30789561010897,919.1186173539609L-89.47613823227584,1083.592583136633L48.98086007684469,1119.7516604606062Z" fill="#391b3f" stroke="#391b3f"></path><path d="M-29.30789561010897,919.1186173539609L48.98086007684469,1119.7516604606062L53.45051804557443,918.7986311037093Z" fill="#3d3144" stroke="#3d3144"></path><path d="M53.45051804557443,918.7986311037093L48.98086007684469,1119.7516604606062L209.40161375328898,940.0105214305222Z" fill="#453b4c" stroke="#453b4c"></path><path d="M209.40161375328898,940.0105214305222L48.98086007684469,1119.7516604606062L187.91738944128156,1137.928260192275Z" fill="#482f51" stroke="#482f51"></path><path d="M209.40161375328898,940.0105214305222L187.91738944128156,1137.928260192275L320.9567660931498,1087.0143947191536Z" fill="#513f5a" stroke="#513f5a"></path><path d="M209.40161375328898,940.0105214305222L320.9567660931498,1087.0143947191536L381.98149929754436,967.1561334561557Z" fill="#565960" stroke="#565960"></path><path d="M381.98149929754436,967.1561334561557L320.9567660931498,1087.0143947191536L469.10510030575097,1172.4495076015592Z" fill="#5e4f66" stroke="#5e4f66"></path><path d="M381.98149929754436,967.1561334561557L469.10510030575097,1172.4495076015592L485.91036496683955,916.2921902630478Z" fill="#636469" stroke="#636469"></path><path d="M485.91036496683955,916.2921902630478L469.10510030575097,1172.4495076015592L689.3280467111617,950.957057364285Z" fill="#6c716f" stroke="#6c716f"></path><path d="M689.3280467111617,950.957057364285L469.10510030575097,1172.4495076015592L695.6430170405656,1176.713624484837Z" fill="#726873" stroke="#726873"></path><path d="M689.3280467111617,950.957057364285L695.6430170405656,1176.713624484837L792.6732900459319,1079.9356992077082Z" fill="#727071" stroke="#727071"></path><path d="M689.3280467111617,950.957057364285L792.6732900459319,1079.9356992077082L817.403431981802,1004.2064202390611Z" fill="#718070" stroke="#718070"></path><path d="M817.403431981802,1004.2064202390611L792.6732900459319,1079.9356992077082L933.1987986154854,1183.3388324081898Z" fill="#6f736d" stroke="#6f736d"></path><path d="M817.403431981802,1004.2064202390611L933.1987986154854,1183.3388324081898L1018.4641743265092,932.8858810476959Z" fill="#6e806b" stroke="#6e806b"></path><path d="M1018.4641743265092,932.8858810476959L933.1987986154854,1183.3388324081898L1169.4260615855455,1136.9110402744263Z" fill="#61725f" stroke="#61725f"></path><path d="M1018.4641743265092,932.8858810476959L1169.4260615855455,1136.9110402744263L1160.016577206552,973.8114552665502Z" fill="#577c54" stroke="#577c54"></path><path d="M1160.016577206552,973.8114552665502L1169.4260615855455,1136.9110402744263L1274.0159326326102,1144.1834334935993Z" fill="#4b6649" stroke="#4b6649"></path><path d="M1160.016577206552,973.8114552665502L1274.0159326326102,1144.1834334935993L1273.231996698305,950.1364501845092Z" fill="#467144" stroke="#467144"></path><path d="M1273.231996698305,950.1364501845092L1274.0159326326102,1144.1834334935993L1436.4970883075148,1081.8147973157465Z" fill="#385e39" stroke="#385e39"></path><path d="M1273.231996698305,950.1364501845092L1436.4970883075148,1081.8147973157465L1423.3463872689754,977.9860369954258Z" fill="#306833" stroke="#306833"></path><path d="M1423.3463872689754,977.9860369954258L1436.4970883075148,1081.8147973157465L1529.2126548662782,960.2520766574889Z" fill="#235d2a" stroke="#235d2a"></path><path d="M1529.2126548662782,960.2520766574889L1436.4970883075148,1081.8147973157465L1587.6675005815923,1118.0975588131696Z" fill="#1b4b24" stroke="#1b4b24"></path><path d="M1529.2126548662782,960.2520766574889L1587.6675005815923,1118.0975588131696L1737.8274974226952,1006.9471228960901Z" fill="#0b461a" stroke="#0b461a"></path><path d="M1737.8274974226952,1006.9471228960901L1587.6675005815923,1118.0975588131696L1725.3505215235054,1170.4483829252422Z" fill="#013313" stroke="#013313"></path><path d="M1737.8274974226952,1006.9471228960901L1725.3505215235054,1170.4483829252422L1820.7896829675883,1137.8652414958924Z" fill="#002a0b" stroke="#002a0b"></path><path d="M1737.8274974226952,1006.9471228960901L1820.7896829675883,1137.8652414958924L1852.0766572281718,1015.681093800813Z" fill="#002b06" stroke="#002b06"></path><path d="M1852.0766572281718,1015.681093800813L1820.7896829675883,1137.8652414958924L2028.5806282795966,1157.3922738153487Z" fill="#001b00" stroke="#001b00"></path><path d="M1852.0766572281718,1015.681093800813L2028.5806282795966,1157.3922738153487L1990.8809844218194,930.6325665581971Z" fill="#001f00" stroke="#001f00"></path><path d="M187.91738944128156,1137.928260192275L469.10510030575097,1172.4495076015592L320.9567660931498,1087.0143947191536Z" fill="#584762" stroke="#584762"></path><path d="M469.10510030575097,1172.4495076015592L933.1987986154854,1183.3388324081898L695.6430170405656,1176.713624484837Z" fill="#726d72" stroke="#726d72"></path><path d="M695.6430170405656,1176.713624484837L933.1987986154854,1183.3388324081898L792.6732900459319,1079.9356992077082Z" fill="#70726f" stroke="#70726f"></path><path d="M933.1987986154854,1183.3388324081898L1725.3505215235054,1170.4483829252422L1274.0159326326102,1144.1834334935993Z" fill="#3b5c3a" stroke="#3b5c3a"></path><path d="M933.1987986154854,1183.3388324081898L1274.0159326326102,1144.1834334935993L1169.4260615855455,1136.9110402744263Z" fill="#556c53" stroke="#556c53"></path><path d="M1274.0159326326102,1144.1834334935993L1725.3505215235054,1170.4483829252422L1587.6675005815923,1118.0975588131696Z" fill="#194423" stroke="#194423"></path><path d="M1274.0159326326102,1144.1834334935993L1587.6675005815923,1118.0975588131696L1436.4970883075148,1081.8147973157465Z" fill="#284f2e" stroke="#284f2e"></path><path d="M1725.3505215235054,1170.4483829252422L2028.5806282795966,1157.3922738153487L1820.7896829675883,1137.8652414958924Z" fill="#002000" stroke="#002000"></path></g></svg>